# xmcd
#
# Track frame offsets:
# 150
# 13372
# 31215
# 48691
# 63172
# 77253
# 89793
# 104522
# 120094
# 134489
#
# Disc length: 1940 seconds
#
#
# Revision: 0
# Processed by: cddbd v1.5.2PL0 Copyright (c) Steve Scherf et al.
# Submitted via: FreeRIP 2.35 
#
DISCID=8007920a
DTITLE=Reverend Peyton's Big Damn Band - Poor Until Payday
DYEAR=2018
DGENRE=Blues
TTITLE0=You Can't Steal My Shine
TTITLE1=Dirty Swerve
TTITLE2=Poor Until Payday
TTITLE3=So Good
TTITLE4=Church Clothes
TTITLE5=Get The Family Together
TTITLE6=Me And The Devil
TTITLE7=Frenchmen Street
TTITLE8=I Suffer, I get Tougher
TTITLE9=It Is Or It Ain't
EXTD=Family Owned Records
EXTT0=
EXTT1=
EXTT2=
EXTT3=
EXTT4=
EXTT5=
EXTT6=
EXTT7=
EXTT8=
EXTT9=
PLAYORDER=
